<svg id="Layer_1" data-name="Layer 1" xmlns="http://www.w3.org/2000/svg" viewBox="0 0 164.84 379.65"><defs><style>.cls-1{fill:#ffffff;}</style></defs><title>logo</title><path class="cls-1" d="M39.49,114.19c3.75-1.25,7.24-2.55,10.81-3.58a86.61,86.61,0,0,1,55.55,2.18c4.41,1.65,4.49,1.66,5.15-2.79q7.06-48,14.07-96,1.09-7.41,2.19-14.83c.25-1.71.28-4.07,2.77-3.29,1,.3,2,2.71,1.82,4-1.66,12.5-3.57,25-5.39,37.45-3.77,25.58-7.4,51.17-11.25,76.73-.41,2.75,1.12,3.51,2.86,4.51a86.14,86.14,0,0,1,31.07,30.29c1.11,1.81,2.06,3.71,3,5.6a10.09,10.09,0,0,1,.55,1.82c-3.31,2-4.78,0-6.16-2.42a81.74,81.74,0,0,0-27.84-29.36c-1.24-.78-2.54-1.46-4.63-2.65L91.79,274.46c3-.77,5.46-1.24,7.77-2a81.72,81.72,0,0,0,46.53-37.41c1.39-2.37,2.54-5.15,6.7-3.42a35.25,35.25,0,0,1-1.73,4.23c-12.42,22.06-30.92,36.33-55.45,42.51-3.47.88-4.88,2.37-5.37,5.83-4,28.32-8.14,56.61-12.24,84.92a13.37,13.37,0,0,1-.32,1.85c-.51,1.75.22,4.42-2.92,4.31s-2.5-2.81-2.76-4.53Q65.78,328.87,59.77,287c-1-7-.88-7-7.78-9C12,266.49-14,231.34-11.94,189.84c1.58-31.14,16.56-55,43.42-71.1,2.6-1.56,3.28-3,2.85-5.9Q26.06,57.44,18,2a7.73,7.73,0,0,1-.26-3,16.8,16.8,0,0,1,1.78-3.37c.93.91,2.51,1.71,2.69,2.75,1.28,7.38,2.27,14.81,3.35,22.23q6.54,44.91,13.11,89.77A35.84,35.84,0,0,0,39.49,114.19ZM75,111.56c-5,.49-10,.63-14.87,1.57a118.44,118.44,0,0,0-14.77,4.13c-5.54,1.83-5.47,2-4.63,7.7q4.07,27.66,8.11,55.23,6.68,45.59,13.31,91.19c.41,2.84,1.54,4.45,4.4,4.49q8.25.09,16.49,0c2.82,0,4-1.64,4.44-4.48q10.68-73.77,21.57-147.52c.5-3.35-.52-5.09-3.62-6.25a87.83,87.83,0,0,0-30.42-6ZM57.79,273.9,35.69,122.35c-24.48,11.42-48.09,44.6-42.17,84C-.53,246.19,32.69,270.5,57.79,273.9Zm5.83,6.94L74.46,355l.77-.05L86,280.85Z" transform="translate(12.05 4.37)"/></svg>